<svg width="40" height="40" viewBox="0 0 40 40" fill="none" xmlns="http://www.w3.org/2000/svg">
<path d="M26.9297 20.0859C27.7891 20.0859 28.4531 20.3359 28.9219 20.8359C29.4062 21.3203 29.6484 22.0234 29.6484 22.9453C29.6484 23.4922 29.5859 24.0391 29.4609 24.5859C29.3516 25.1172 29.1875 25.6406 28.9688 26.1562C28.7656 26.6562 28.5078 27.1406 28.1953 27.6094C27.8984 28.0625 27.5625 28.4688 27.1875 28.8281C26.7344 29.2344 26.2656 29.5312 25.7812 29.7188C25.3125 29.9062 24.7812 30 24.1875 30C23.2344 30 22.4688 29.6875 21.8906 29.0625C21.3125 28.4375 21.0234 27.6016 21.0234 26.5547C21.0234 25.7109 21.1875 24.9062 21.5156 24.1406C21.8438 23.3594 22.2812 22.6719 22.8281 22.0781C23.375 21.4688 24 20.9844 24.7031 20.625C25.4219 20.2656 26.1641 20.0859 26.9297 20.0859ZM27.0234 20.9297C26.2266 20.9297 25.4531 21.4688 24.7031 22.5469C24.4688 22.9062 24.25 23.2969 24.0469 23.7188C23.8438 24.1406 23.6641 24.5703 23.5078 25.0078C23.3516 25.4453 23.2266 25.8828 23.1328 26.3203C23.0547 26.7422 23.0156 27.1328 23.0156 27.4922C23.0156 27.9922 23.1641 28.4062 23.4609 28.7344C23.7734 29.0469 24.1797 29.2031 24.6797 29.2031C25.1797 29.2031 25.6406 29.0781 26.0625 28.8281C26.4844 28.5625 26.9219 28.1328 27.375 27.5391C27.8594 26.8828 28.2422 26.1641 28.5234 25.3828C28.8203 24.5859 28.9688 23.8125 28.9688 23.0625C28.9688 22.4688 28.7812 21.9688 28.4062 21.5625C28.0312 21.1406 27.5703 20.9297 27.0234 20.9297ZM15.6328 30.3516H14.3672L23.7656 13.6172C23.2344 13.9297 22.7578 14.1406 22.3359 14.25C21.9141 14.3594 21.4297 14.4141 20.8828 14.4141C20.4609 14.4141 20.1172 14.3906 19.8516 14.3438C19.6016 14.2969 19.3438 14.2266 19.0781 14.1328C19.1562 14.3828 19.2031 14.5938 19.2188 14.7656C19.25 14.9375 19.2656 15.125 19.2656 15.3281C19.2656 16.2344 19.1094 17.1094 18.7969 17.9531C18.5 18.7812 18.0938 19.5156 17.5781 20.1562C17.0781 20.7969 16.5 21.3125 15.8438 21.7031C15.1875 22.0781 14.5 22.2656 13.7812 22.2656C13.3438 22.2656 12.9297 22.1797 12.5391 22.0078C12.1641 21.8203 11.8281 21.5781 11.5312 21.2812C11.25 20.9688 11.0234 20.6094 10.8516 20.2031C10.6953 19.7812 10.6172 19.3359 10.6172 18.8672C10.6172 18.0078 10.7812 17.1875 11.1094 16.4062C11.4375 15.6094 11.875 14.9062 12.4219 14.2969C12.9688 13.6875 13.6016 13.2031 14.3203 12.8438C15.0391 12.4688 15.7891 12.2812 16.5703 12.2812C16.7734 12.2812 16.9453 12.2969 17.0859 12.3281C17.2422 12.3438 17.3906 12.3828 17.5312 12.4453C17.6719 12.4922 17.8125 12.5625 17.9531 12.6562C18.0938 12.75 18.25 12.875 18.4219 13.0312C18.7344 13.2969 19.0547 13.4844 19.3828 13.5938C19.7266 13.6875 20.1719 13.7344 20.7188 13.7344C21.1406 13.7344 21.5234 13.7031 21.8672 13.6406C22.2266 13.5781 22.5703 13.4766 22.8984 13.3359C23.2266 13.1953 23.5469 13.0156 23.8594 12.7969C24.1875 12.5625 24.5391 12.2734 24.9141 11.9297H25.9453L15.6328 30.3516ZM18.3516 13.9453C17.9453 13.8359 17.6484 13.7422 17.4609 13.6641C17.2734 13.5703 17.0781 13.4375 16.875 13.2656C16.75 13.1562 16.6484 13.1016 16.5703 13.1016C16.1484 13.1016 15.7031 13.3125 15.2344 13.7344C14.7812 14.1562 14.3594 14.6953 13.9688 15.3516C13.5938 16.0078 13.2812 16.7266 13.0312 17.5078C12.7812 18.2891 12.6562 19.0312 12.6562 19.7344C12.6562 20.2188 12.8047 20.6094 13.1016 20.9062C13.3984 21.2031 13.7734 21.3516 14.2266 21.3516C14.7734 21.3516 15.3047 21.1797 15.8203 20.8359C16.3516 20.4766 16.8203 20.0156 17.2266 19.4531C17.6328 18.875 17.9609 18.2266 18.2109 17.5078C18.4609 16.7734 18.5859 16.0234 18.5859 15.2578C18.5859 14.9141 18.5078 14.4766 18.3516 13.9453Z" fill="#434EA4"/>
<circle cx="20" cy="20" r="18.5" stroke="#434EA4" stroke-width="3" stroke-dasharray="2 2"/>
</svg>
