<svg width="68" height="42" viewBox="0 0 68 42" fill="none" xmlns="http://www.w3.org/2000/svg">
<path d="M15.9844 6.95312C15.8594 6.51562 15.7344 6.14062 15.6094 5.82812C15.4844 5.5 15.3516 5.21094 15.2109 4.96094C15.0859 4.69531 14.9375 4.46094 14.7656 4.25781C14.6094 4.05469 14.4219 3.84375 14.2031 3.625C13.6719 3.07812 13.0625 2.67188 12.375 2.40625C11.7031 2.125 10.9844 1.98438 10.2188 1.98438C9.25 1.98438 8.36719 2.17188 7.57031 2.54688C6.78906 2.92188 6.11719 3.46094 5.55469 4.16406C5.00781 4.85156 4.58594 5.6875 4.28906 6.67188C3.99219 7.65625 3.84375 8.75 3.84375 9.95312C3.84375 11.5156 4.05469 12.8828 4.47656 14.0547C4.89844 15.2266 5.5 16.1406 6.28125 16.7969C7.45312 17.7344 8.85156 18.2031 10.4766 18.2031C11.5859 18.2031 12.6094 17.9922 13.5469 17.5703C14.4844 17.1484 15.4531 16.4609 16.4531 15.5078L16.9219 15.9766C16.1094 17.0547 15.0703 17.8906 13.8047 18.4844C12.5547 19.0781 11.1641 19.375 9.63281 19.375C8.30469 19.375 7.09375 19.1562 6 18.7188C4.90625 18.2812 3.96875 17.6719 3.1875 16.8906C2.40625 16.0938 1.79688 15.1406 1.35938 14.0312C0.9375 12.9219 0.726562 11.6875 0.726562 10.3281C0.726562 8.78125 0.992188 7.39062 1.52344 6.15625C2.05469 4.90625 2.83594 3.85938 3.86719 3.01562C4.67969 2.35938 5.59375 1.85156 6.60938 1.49219C7.625 1.11719 8.64844 0.929688 9.67969 0.929688C11.0078 0.929688 12.3203 1.14844 13.6172 1.58594C14.0547 1.74219 14.4062 1.82031 14.6719 1.82031C14.9375 1.82031 15.1641 1.74219 15.3516 1.58594C15.5547 1.42969 15.6953 1.21094 15.7734 0.929688H16.3359L16.5938 6.95312H15.9844ZM18.0234 8.17188C18.4141 8.03125 18.7734 7.90625 19.1016 7.79688C19.4297 7.67188 19.7422 7.55469 20.0391 7.44531C20.3516 7.32031 20.6562 7.20312 20.9531 7.09375C21.2656 6.96875 21.6016 6.83594 21.9609 6.69531L22.125 6.74219V9.20312C22.4531 8.71875 22.75 8.32031 23.0156 8.00781C23.2812 7.67969 23.5391 7.42188 23.7891 7.23438C24.0391 7.03125 24.2812 6.89062 24.5156 6.8125C24.7656 6.73438 25.0312 6.69531 25.3125 6.69531C25.7656 6.69531 26.125 6.82812 26.3906 7.09375C26.6562 7.34375 26.7891 7.67969 26.7891 8.10156C26.7891 8.49219 26.6953 8.79688 26.5078 9.01562C26.3203 9.21875 26.0703 9.32031 25.7578 9.32031C25.5859 9.32031 25.4141 9.28906 25.2422 9.22656C25.0859 9.14844 24.8984 9 24.6797 8.78125C24.5391 8.65625 24.4062 8.5625 24.2812 8.5C24.1562 8.4375 24.0547 8.40625 23.9766 8.40625C23.7891 8.40625 23.5859 8.48438 23.3672 8.64062C23.1641 8.78125 22.9688 8.96094 22.7812 9.17969C22.5938 9.39844 22.4375 9.63281 22.3125 9.88281C22.1875 10.1328 22.125 10.3672 22.125 10.5859V16.6094C22.125 16.9844 22.1562 17.2969 22.2188 17.5469C22.2812 17.7969 22.3984 18 22.5703 18.1562C22.7422 18.2969 22.9766 18.4062 23.2734 18.4844C23.5703 18.5625 23.9453 18.6094 24.3984 18.625V19H17.9531V18.625C18.375 18.5469 18.7109 18.4688 18.9609 18.3906C19.2266 18.2969 19.4219 18.1875 19.5469 18.0625C19.6875 17.9375 19.7734 17.7734 19.8047 17.5703C19.8516 17.3516 19.875 17.0781 19.875 16.75V10.0703C19.875 9.47656 19.8047 9.0625 19.6641 8.82812C19.5234 8.57812 19.2891 8.45312 18.9609 8.45312C18.7891 8.45312 18.6328 8.46094 18.4922 8.47656C18.3672 8.49219 18.2109 8.52344 18.0234 8.57031V8.17188ZM31.5469 6.76562V16.2812C31.5469 16.7656 31.5625 17.1562 31.5938 17.4531C31.6406 17.7344 31.7344 17.9609 31.875 18.1328C32.0156 18.2891 32.2109 18.3984 32.4609 18.4609C32.7266 18.5234 33.0859 18.5781 33.5391 18.625V19H27.1875V18.625C27.6562 18.5938 28.0234 18.5469 28.2891 18.4844C28.5703 18.4062 28.7812 18.2891 28.9219 18.1328C29.0781 17.9609 29.1797 17.7344 29.2266 17.4531C29.2734 17.1562 29.2969 16.7656 29.2969 16.2812V10.0703C29.2969 9.47656 29.2266 9.0625 29.0859 8.82812C28.9609 8.57812 28.7422 8.45312 28.4297 8.45312C28.3047 8.45312 28.1562 8.46094 27.9844 8.47656C27.8281 8.49219 27.6641 8.51562 27.4922 8.54688L27.3047 8.57031V8.17188L31.4297 6.69531L31.5469 6.76562ZM30.2109 0.71875C30.5859 0.71875 30.9062 0.859375 31.1719 1.14062C31.4375 1.40625 31.5703 1.72656 31.5703 2.10156C31.5703 2.49219 31.4375 2.82031 31.1719 3.08594C30.9219 3.33594 30.5938 3.46094 30.1875 3.46094C29.7969 3.46094 29.4766 3.33594 29.2266 3.08594C28.9766 2.82031 28.8516 2.49219 28.8516 2.10156C28.8516 1.72656 28.9844 1.40625 29.25 1.14062C29.5156 0.859375 29.8359 0.71875 30.2109 0.71875ZM34.4531 8.05469C34.8281 7.94531 35.1719 7.84375 35.4844 7.75C35.7969 7.64062 36.1016 7.53125 36.3984 7.42188C36.6953 7.3125 36.9922 7.20312 37.2891 7.09375C37.6016 6.96875 37.9375 6.83594 38.2969 6.69531L38.4609 6.74219V8.80469C39.0547 8.05469 39.6562 7.51562 40.2656 7.1875C40.8906 6.85938 41.5781 6.69531 42.3281 6.69531C42.9688 6.69531 43.5625 6.83594 44.1094 7.11719C44.6562 7.39844 45.125 7.79688 45.5156 8.3125C45.9219 8.8125 46.2344 9.41406 46.4531 10.1172C46.6875 10.8047 46.8047 11.5625 46.8047 12.3906C46.8047 13.3594 46.6562 14.2656 46.3594 15.1094C46.0781 15.9375 45.6797 16.6641 45.1641 17.2891C44.6641 17.8984 44.0703 18.3828 43.3828 18.7422C42.6953 19.0859 41.9531 19.2578 41.1562 19.2578C40.875 19.2578 40.6172 19.2344 40.3828 19.1875C40.1641 19.1562 39.9531 19.0938 39.75 19C39.5469 18.9219 39.3359 18.8125 39.1172 18.6719C38.9141 18.5156 38.6953 18.3281 38.4609 18.1094V22.3281C38.4609 22.75 38.4922 23.0859 38.5547 23.3359C38.6172 23.6016 38.7344 23.8047 38.9062 23.9453C39.0781 24.1016 39.3125 24.2031 39.6094 24.25C39.9219 24.3125 40.3281 24.3438 40.8281 24.3438V24.8125H34.3359V24.3672C34.7266 24.3203 35.0469 24.2656 35.2969 24.2031C35.5469 24.1406 35.7422 24.0391 35.8828 23.8984C36.0234 23.7578 36.1172 23.5781 36.1641 23.3594C36.2109 23.1406 36.2344 22.8594 36.2344 22.5156V10C36.2344 9.35938 36.1641 8.94531 36.0234 8.75781C35.8828 8.55469 35.5859 8.45312 35.1328 8.45312C35.0078 8.45312 34.8906 8.45312 34.7812 8.45312C34.6875 8.45312 34.5781 8.46094 34.4531 8.47656V8.05469ZM38.4609 16.6562C38.4609 16.8594 38.5469 17.0625 38.7188 17.2656C38.8906 17.4688 39.1094 17.6562 39.375 17.8281C39.6406 18 39.9375 18.1406 40.2656 18.25C40.6094 18.3594 40.9375 18.4141 41.25 18.4141C41.7344 18.4141 42.1719 18.2969 42.5625 18.0625C42.9688 17.8125 43.3125 17.4766 43.5938 17.0547C43.875 16.6172 44.0938 16.0938 44.25 15.4844C44.4062 14.875 44.4844 14.2031 44.4844 13.4688C44.4844 12.6875 44.4062 11.9766 44.25 11.3359C44.0938 10.6953 43.8672 10.1562 43.5703 9.71875C43.2891 9.26562 42.9453 8.92188 42.5391 8.6875C42.1328 8.4375 41.6797 8.3125 41.1797 8.3125C40.8672 8.3125 40.5469 8.36719 40.2188 8.47656C39.9062 8.58594 39.6172 8.72656 39.3516 8.89844C39.0859 9.07031 38.8672 9.25781 38.6953 9.46094C38.5391 9.66406 38.4609 9.86719 38.4609 10.0703V16.6562ZM54.4219 7.79688H51.7031V15.4844C51.7031 16.3438 51.8125 16.9609 52.0312 17.3359C52.25 17.6953 52.6016 17.875 53.0859 17.875C53.3984 17.875 53.6719 17.8125 53.9062 17.6875C54.1406 17.5469 54.4141 17.2969 54.7266 16.9375L55.0547 17.2656C54.2109 18.5938 53.1328 19.2578 51.8203 19.2578C50.2422 19.2578 49.4531 18.125 49.4531 15.8594V7.79688H48.0469C47.9844 7.78125 47.9531 7.72656 47.9531 7.63281C47.9531 7.47656 48.1016 7.30469 48.3984 7.11719C49.1016 6.71094 49.9688 5.75781 51 4.25781C51.0781 4.13281 51.1641 4.01562 51.2578 3.90625C51.3672 3.78125 51.4609 3.64844 51.5391 3.50781C51.6016 3.50781 51.6406 3.53125 51.6562 3.57812C51.6875 3.625 51.7031 3.71875 51.7031 3.85938V6.95312H54.4219V7.79688ZM61.7344 6.69531C62.5938 6.69531 63.3828 6.84375 64.1016 7.14062C64.8203 7.4375 65.4375 7.85938 65.9531 8.40625C66.4844 8.9375 66.8984 9.57031 67.1953 10.3047C67.4922 11.0391 67.6406 11.8516 67.6406 12.7422C67.6406 13.6797 67.4844 14.5469 67.1719 15.3438C66.875 16.125 66.4609 16.8125 65.9297 17.4062C65.3984 17.9844 64.7656 18.4375 64.0312 18.7656C63.3125 19.0938 62.5312 19.2578 61.6875 19.2578C60.8438 19.2578 60.0625 19.1016 59.3438 18.7891C58.625 18.4766 58.0078 18.0391 57.4922 17.4766C56.9766 16.9141 56.5703 16.25 56.2734 15.4844C55.9766 14.7188 55.8281 13.8828 55.8281 12.9766C55.8281 12.0547 55.9688 11.2109 56.25 10.4453C56.5469 9.66406 56.9531 9 57.4688 8.45312C57.9844 7.89062 58.6016 7.46094 59.3203 7.16406C60.0547 6.85156 60.8594 6.69531 61.7344 6.69531ZM61.3359 7.44531C60.3984 7.44531 59.6484 7.82812 59.0859 8.59375C58.5234 9.35938 58.2422 10.375 58.2422 11.6406C58.2422 12.5938 58.3438 13.5234 58.5469 14.4297C58.75 15.3203 59.0391 16.1172 59.4141 16.8203C59.6953 17.3672 60.0703 17.7891 60.5391 18.0859C61.0078 18.3828 61.5156 18.5312 62.0625 18.5312C63.0469 18.5312 63.8125 18.1016 64.3594 17.2422C64.9219 16.3672 65.2031 15.1719 65.2031 13.6562C65.2031 12.5156 65.0391 11.4531 64.7109 10.4688C64.3828 9.48438 63.9375 8.74219 63.375 8.24219C63.0781 7.96094 62.7656 7.75781 62.4375 7.63281C62.1094 7.50781 61.7422 7.44531 61.3359 7.44531ZM15.9844 28.9531C15.8594 28.5156 15.7344 28.1406 15.6094 27.8281C15.4844 27.5 15.3516 27.2109 15.2109 26.9609C15.0859 26.6953 14.9375 26.4609 14.7656 26.2578C14.6094 26.0547 14.4219 25.8438 14.2031 25.625C13.6719 25.0781 13.0625 24.6719 12.375 24.4062C11.7031 24.125 10.9844 23.9844 10.2188 23.9844C9.25 23.9844 8.36719 24.1719 7.57031 24.5469C6.78906 24.9219 6.11719 25.4609 5.55469 26.1641C5.00781 26.8516 4.58594 27.6875 4.28906 28.6719C3.99219 29.6562 3.84375 30.75 3.84375 31.9531C3.84375 33.5156 4.05469 34.8828 4.47656 36.0547C4.89844 37.2266 5.5 38.1406 6.28125 38.7969C7.45312 39.7344 8.85156 40.2031 10.4766 40.2031C11.5859 40.2031 12.6094 39.9922 13.5469 39.5703C14.4844 39.1484 15.4531 38.4609 16.4531 37.5078L16.9219 37.9766C16.1094 39.0547 15.0703 39.8906 13.8047 40.4844C12.5547 41.0781 11.1641 41.375 9.63281 41.375C8.30469 41.375 7.09375 41.1562 6 40.7188C4.90625 40.2812 3.96875 39.6719 3.1875 38.8906C2.40625 38.0938 1.79688 37.1406 1.35938 36.0312C0.9375 34.9219 0.726562 33.6875 0.726562 32.3281C0.726562 30.7812 0.992188 29.3906 1.52344 28.1562C2.05469 26.9062 2.83594 25.8594 3.86719 25.0156C4.67969 24.3594 5.59375 23.8516 6.60938 23.4922C7.625 23.1172 8.64844 22.9297 9.67969 22.9297C11.0078 22.9297 12.3203 23.1484 13.6172 23.5859C14.0547 23.7422 14.4062 23.8203 14.6719 23.8203C14.9375 23.8203 15.1641 23.7422 15.3516 23.5859C15.5547 23.4297 15.6953 23.2109 15.7734 22.9297H16.3359L16.5938 28.9531H15.9844ZM18.0234 30.1719C18.4141 30.0312 18.7734 29.9062 19.1016 29.7969C19.4297 29.6719 19.7422 29.5547 20.0391 29.4453C20.3516 29.3203 20.6562 29.2031 20.9531 29.0938C21.2656 28.9688 21.6016 28.8359 21.9609 28.6953L22.125 28.7422V31.2031C22.4531 30.7188 22.75 30.3203 23.0156 30.0078C23.2812 29.6797 23.5391 29.4219 23.7891 29.2344C24.0391 29.0312 24.2812 28.8906 24.5156 28.8125C24.7656 28.7344 25.0312 28.6953 25.3125 28.6953C25.7656 28.6953 26.125 28.8281 26.3906 29.0938C26.6562 29.3438 26.7891 29.6797 26.7891 30.1016C26.7891 30.4922 26.6953 30.7969 26.5078 31.0156C26.3203 31.2188 26.0703 31.3203 25.7578 31.3203C25.5859 31.3203 25.4141 31.2891 25.2422 31.2266C25.0859 31.1484 24.8984 31 24.6797 30.7812C24.5391 30.6562 24.4062 30.5625 24.2812 30.5C24.1562 30.4375 24.0547 30.4062 23.9766 30.4062C23.7891 30.4062 23.5859 30.4844 23.3672 30.6406C23.1641 30.7812 22.9688 30.9609 22.7812 31.1797C22.5938 31.3984 22.4375 31.6328 22.3125 31.8828C22.1875 32.1328 22.125 32.3672 22.125 32.5859V38.6094C22.125 38.9844 22.1562 39.2969 22.2188 39.5469C22.2812 39.7969 22.3984 40 22.5703 40.1562C22.7422 40.2969 22.9766 40.4062 23.2734 40.4844C23.5703 40.5625 23.9453 40.6094 24.3984 40.625V41H17.9531V40.625C18.375 40.5469 18.7109 40.4688 18.9609 40.3906C19.2266 40.2969 19.4219 40.1875 19.5469 40.0625C19.6875 39.9375 19.7734 39.7734 19.8047 39.5703C19.8516 39.3516 19.875 39.0781 19.875 38.75V32.0703C19.875 31.4766 19.8047 31.0625 19.6641 30.8281C19.5234 30.5781 19.2891 30.4531 18.9609 30.4531C18.7891 30.4531 18.6328 30.4609 18.4922 30.4766C18.3672 30.4922 18.2109 30.5234 18.0234 30.5703V30.1719ZM36.6094 38.1875C36.6094 38.7812 36.6641 39.1953 36.7734 39.4297C36.8828 39.6484 37.0938 39.7578 37.4062 39.7578C37.7656 39.7578 38.1562 39.5938 38.5781 39.2656V39.9453C38.125 40.4453 37.7266 40.7891 37.3828 40.9766C37.0391 41.1641 36.6406 41.2578 36.1875 41.2578C35.6406 41.2578 35.2344 41.1094 34.9688 40.8125C34.7188 40.5 34.5625 39.9844 34.5 39.2656C33.6875 39.9688 32.9766 40.4766 32.3672 40.7891C31.7578 41.1016 31.1641 41.2578 30.5859 41.2578C29.7422 41.2578 29.0547 40.9922 28.5234 40.4609C28.0078 39.9297 27.75 39.2422 27.75 38.3984C27.75 37.9766 27.8281 37.5547 27.9844 37.1328C28.1562 36.6953 28.3984 36.3438 28.7109 36.0781C28.9922 35.8281 29.25 35.6172 29.4844 35.4453C29.7344 35.2578 30.0547 35.0703 30.4453 34.8828C30.8359 34.6797 31.3438 34.4531 31.9688 34.2031C32.5938 33.9531 33.4219 33.6172 34.4531 33.1953V31.4844C34.4531 30.75 34.2734 30.1953 33.9141 29.8203C33.5703 29.4453 33.0703 29.2578 32.4141 29.2578C31.8672 29.2578 31.4062 29.3906 31.0312 29.6562C30.6719 29.9062 30.4922 30.2109 30.4922 30.5703C30.4922 30.7109 30.5078 30.8906 30.5391 31.1094C30.5859 31.3281 30.6094 31.5078 30.6094 31.6484C30.6094 31.9609 30.4844 32.2266 30.2344 32.4453C30 32.6641 29.7266 32.7734 29.4141 32.7734C29.1016 32.7734 28.8281 32.6641 28.5938 32.4453C28.375 32.2109 28.2656 31.9375 28.2656 31.625C28.2656 31.2812 28.3594 30.9297 28.5469 30.5703C28.75 30.2109 29.0234 29.8906 29.3672 29.6094C29.7266 29.2969 30.2031 29.0547 30.7969 28.8828C31.4062 28.7109 32.0625 28.625 32.7656 28.625C33.5781 28.625 34.2578 28.7656 34.8047 29.0469C35.3672 29.3125 35.7969 29.6875 36.0938 30.1719C36.2812 30.4844 36.4141 30.8516 36.4922 31.2734C36.5703 31.6797 36.6094 32.2344 36.6094 32.9375V38.1875ZM34.4531 33.8516C33.6406 34.1484 32.9453 34.4375 32.3672 34.7188C31.8047 34.9844 31.3438 35.2656 30.9844 35.5625C30.6406 35.8438 30.3906 36.1484 30.2344 36.4766C30.0781 36.8047 30 37.1641 30 37.5547V37.6719C30 37.9531 30.0469 38.2266 30.1406 38.4922C30.2344 38.7422 30.3594 38.9609 30.5156 39.1484C30.6875 39.3359 30.8828 39.4844 31.1016 39.5938C31.3203 39.7031 31.5469 39.7578 31.7812 39.7578C32.0625 39.7578 32.375 39.7031 32.7188 39.5938C33.0781 39.4688 33.4141 39.3203 33.7266 39.1484C34.0391 38.9766 34.2344 38.7969 34.3125 38.6094C34.4062 38.4219 34.4531 38.125 34.4531 37.7188V33.8516ZM47.8406 32.6094C47.5438 31.4062 47.1766 30.5547 46.7391 30.0547C46.3016 29.5547 45.7 29.3047 44.9344 29.3047C44.3094 29.3047 43.8094 29.4766 43.4344 29.8203C43.0594 30.1484 42.8719 30.5859 42.8719 31.1328C42.8719 31.8984 43.2547 32.5078 44.0203 32.9609L46.9031 34.6719C47.7156 35.1562 48.2938 35.6406 48.6375 36.125C48.9813 36.5938 49.1531 37.1641 49.1531 37.8359C49.1531 38.3047 49.0516 38.75 48.8484 39.1719C48.6453 39.5938 48.3719 39.9609 48.0281 40.2734C47.7 40.5703 47.3094 40.8125 46.8563 41C46.4031 41.1719 45.9188 41.2578 45.4031 41.2578C45.1219 41.2578 44.8172 41.2344 44.4891 41.1875C44.1609 41.1562 43.8016 41.0938 43.4109 41C43.0984 40.9219 42.8563 40.8672 42.6844 40.8359C42.5125 40.8047 42.3484 40.7891 42.1922 40.7891C42.0359 40.7891 41.9188 40.8125 41.8406 40.8594C41.7625 40.9062 41.6766 40.9922 41.5828 41.1172H41.2313V36.9453H41.6531C41.8094 37.6328 41.9891 38.2109 42.1922 38.6797C42.3953 39.1484 42.6297 39.5312 42.8953 39.8281C43.1609 40.125 43.4734 40.3438 43.8328 40.4844C44.1922 40.6094 44.5984 40.6719 45.0516 40.6719C45.7547 40.6719 46.3016 40.5 46.6922 40.1562C47.0984 39.8125 47.3016 39.3438 47.3016 38.75C47.3016 37.9531 46.8328 37.2891 45.8953 36.7578L44.3484 35.8672C43.7703 35.5391 43.2781 35.2266 42.8719 34.9297C42.4813 34.6328 42.1609 34.3359 41.9109 34.0391C41.6609 33.7266 41.4813 33.4062 41.3719 33.0781C41.2625 32.75 41.2078 32.3984 41.2078 32.0234C41.2078 31.5391 41.2938 31.0938 41.4656 30.6875C41.6531 30.2812 41.9031 29.9297 42.2156 29.6328C42.5438 29.3359 42.9344 29.1094 43.3875 28.9531C43.8406 28.7969 44.3406 28.7188 44.8875 28.7188C45.5125 28.7188 46.1141 28.8281 46.6922 29.0469C47.0203 29.1875 47.2703 29.2578 47.4422 29.2578C47.5047 29.2578 47.5516 29.2422 47.5828 29.2109C47.6141 29.1797 47.6922 29.1094 47.8172 29L47.8406 28.9531H48.1688L48.2625 32.6094H47.8406ZM54.45 38.2812C54.45 38.7344 54.4734 39.1094 54.5203 39.4062C54.5672 39.6875 54.6531 39.9141 54.7781 40.0859C54.9031 40.2422 55.0828 40.3594 55.3172 40.4375C55.5672 40.5156 55.8875 40.5781 56.2781 40.625V41H50.4891V40.625C50.8797 40.5625 51.1844 40.4922 51.4031 40.4141C51.6375 40.3359 51.8094 40.2188 51.9188 40.0625C52.0438 39.8906 52.1219 39.6719 52.1531 39.4062C52.1844 39.125 52.2 38.75 52.2 38.2812V25.6719C52.2 25.3906 52.1844 25.1641 52.1531 24.9922C52.1219 24.8047 52.0516 24.6641 51.9422 24.5703C51.8484 24.4609 51.7078 24.3906 51.5203 24.3594C51.3484 24.3281 51.1219 24.3125 50.8406 24.3125C50.6844 24.3125 50.575 24.3203 50.5125 24.3359V23.8906L51.2391 23.7031C51.6141 23.5781 51.9422 23.4766 52.2234 23.3984C52.5047 23.3047 52.7625 23.2266 52.9969 23.1641C53.2313 23.0859 53.45 23.0156 53.6531 22.9531C53.8563 22.875 54.075 22.7969 54.3094 22.7188L54.45 22.8125V30.9688C55.075 30.1406 55.6844 29.5547 56.2781 29.2109C56.8875 28.8672 57.5828 28.6953 58.3641 28.6953C59.4891 28.6953 60.3172 29.0547 60.8484 29.7734C61.3797 30.4922 61.6453 31.5547 61.6453 32.9609V38.2812C61.6453 38.7344 61.6609 39.1016 61.6922 39.3828C61.7234 39.6484 61.7938 39.8672 61.9031 40.0391C62.0281 40.1953 62.2 40.3203 62.4188 40.4141C62.6375 40.4922 62.9266 40.5625 63.2859 40.625V41H57.6141V40.625C58.0047 40.5781 58.3172 40.5156 58.5516 40.4375C58.7859 40.3594 58.9656 40.2422 59.0906 40.0859C59.2313 39.9141 59.3172 39.6875 59.3484 39.4062C59.3953 39.1094 59.4188 38.7344 59.4188 38.2812V33.0078C59.4188 31.1172 58.7625 30.1719 57.45 30.1719C56.9031 30.1719 56.4031 30.2969 55.95 30.5469C55.5125 30.7812 55.0125 31.2109 54.45 31.8359V38.2812Z" fill="white"/>
</svg>
